# xmcd CD database file
#
# Track frame offsets:
#	187
#	12145
#	30127
#	42832
#	59745
#	76947
#	90415
#	101022
#	113715
#	131172
#	148855
#	163852
#	180797
#	194550
#	210395
#	226205
#	240042
#	252897
#	266230
#	280937
#
# Disc length: 3900 seconds
#
# Revision: 2
# Processed by: cddbd v1.5.2PL0 Copyright (c) Steve Scherf et al.
# Submitted via: CDex 1.70beta2
#
DISCID=060f3a14
DTITLE=オムニバス - 青春Note歌Book03　1994年
DYEAR=1994
DGENRE=JPop
TTITLE0=てんとう虫のサンバ/チェリッシュ
TTITLE1=遠い世界に/五つの赤い風船
TTITLE2=今夜は踊ろう/荒木一郎
TTITLE3=受験生ブルース/高石友也
TTITLE4=世界は二人のために/佐良直美
TTITLE5=ガール・フレンド/オックス
TTITLE6=恋は風に乗って/五つの赤い風船
TTITLE7=若草の首飾り/チェリッシュ
TTITLE8=東京/マイ・ペース
TTITLE9=雨/三好英史
TTITLE10=男と女のお話/日吉ミミ
TTITLE11=あなたにあげる/西川峰子
TTITLE12=ひまわりの小径/チェリッシュ
TTITLE13=いいじゃないの幸せならば/佐良直美
TTITLE14=友よ/岡林信彦;高石友也;フォーク・キャンバース
TTITLE15=あなたの心に/中山千夏
TTITLE16=スワンの涙/オックス
TTITLE17=白いギター/チェリッシュ
TTITLE18=悲しみは駆け足でやってくる/アン真理子
TTITLE19=走れコータロー/ソルティー・シュガー
EXTD=YEAR: 1994
EXTT0=
EXTT1=
EXTT2=
EXTT3=
EXTT4=
EXTT5=
EXTT6=
EXTT7=
EXTT8=
EXTT9=
EXTT10=
EXTT11=
EXTT12=
EXTT13=
EXTT14=
EXTT15=
EXTT16=
EXTT17=
EXTT18=
EXTT19=
PLAYORDER=
